# xmcd CD database file
#
# Track frame offsets:
#	150
#	12379
#	26491
#	39546
#	51488
#	60159
#	75391
#	83964
#	96536
#	110940
#	124028
#	135375
#	148799
#
# Disc length: 2025 seconds
#
# Revision: 3
# Processed by: cddbd v1.5.2PL0 Copyright (c) Steve Scherf et al.
# Submitted via: CDex 1.70beta2
#
DISCID=b007e70d
DTITLE=Kabaret Starszych Panów - Piosenki z KSP 4 - Herbatka
DYEAR=2008
DGENRE=Jazz
TTITLE0=Herbatka
TTITLE1=Jesienna dziewczyna
TTITLE2=Addio, pomidory !
TTITLE3=Ciepla wdowka na zime
TTITLE4=Na calej polaci snieg
TTITLE5=Dla ciebie jestem soba
TTITLE6=No i jak tu nie jechac ?
TTITLE7=Stacyjka Zdroj
TTITLE8=Juz czas na sen
TTITLE9=Nie, nie, nie budzcie mnie !
TTITLE10=Odjade z tego peronu
TTITLE11=Zmierzch
TTITLE12=Sygnal
EXTD=YEAR: 2008
EXTT0=
EXTT1=
EXTT2=
EXTT3=
EXTT4=
EXTT5=
EXTT6=
EXTT7=
EXTT8=
EXTT9=
EXTT10=
EXTT11=
EXTT12=
PLAYORDER=
